<svg version="1.0" xmlns="http://www.w3.org/2000/svg" width="200.000000pt" height="200.000000pt" viewBox="0 0 200.000000 200.000000" preserveAspectRatio="xMidYMid meet">
<g transform="translate(0.000000,200.000000) scale(0.100000,-0.100000)"
fill="#000000" stroke="none">
<path d="M800 1935 c-180 -37 -331 -117 -469 -249 -148 -143 -246 -323 -280
-520 -14 -77 -14 -265 0 -342 23 -131 85 -277 164 -389 49 -69 169 -187 235
-232 104 -70 252 -131 374 -152 77 -14 265 -14 342 0 197 34 377 132 520 280
179 188 264 398 264 658 0 176 -26 292 -98 436 -48 98 -85 149 -166 234 -143
148 -323 246 -520 280 -81 15 -286 12 -366 -4z m368 -662 l167 167 68 -67 67
-68 -167 -167 -168 -168 168 -168 167 -167 -67 -68 -68 -67 -167 167 -168 168
-168 -168 -167 -167 -68 67 -67 68 167 167 168 168 -168 168 -167 167 67 68
68 67 167 -167 168 -168 168 168z"/>
</g>
</svg>